<svg width="380" height="170" viewBox="0 0 380 170" fill="none" xmlns="http://www.w3.org/2000/svg">
<path d="M65 88C65 101.807 76.1929 113 90 113C103.807 113 115 101.807 115 88V68H65V88Z" fill="#63989F"/>
<path d="M65 38C65 24.1929 76.1929 13 90 13C103.807 13 115 24.1929 115 38V68H65V38Z" fill="#9F7163"/>
<rect x="67" y="15" width="46" height="96" rx="23" stroke="#30312F" stroke-width="4"/>
<rect x="65" y="67" width="50" height="4" fill="#30312F"/>
<path d="M90.5 104.15C90.5 105.172 91.3303 106.01 92.3469 105.908C94.1428 105.727 95.906 105.285 97.5796 104.592C99.8242 103.662 101.864 102.299 103.581 100.581C105.299 98.8636 106.662 96.8242 107.592 94.5796C108.285 92.906 108.727 91.1428 108.908 89.3469C109.01 88.3303 108.172 87.5 107.15 87.5C106.128 87.5 105.312 88.3314 105.185 89.3452C105.02 90.6548 104.681 91.9392 104.173 93.1637C103.43 94.9593 102.339 96.5909 100.965 97.9652C99.5909 99.3395 97.9593 100.43 96.1637 101.173C94.9392 101.681 93.6548 102.02 92.3452 102.185C91.3314 102.312 90.5 103.128 90.5 104.15Z" fill="#30312F"/>
<circle cx="81" cy="71" r="7" fill="#30312F"/>
<g filter="url(#filter0_d_115_135)">
<circle cx="81" cy="71" r="5.44444" fill="#242523"/>
</g>
<rect x="80.2222" y="73.3333" width="2" height="4" rx="1" fill="#F2F2F1"/>
<circle cx="99" cy="71" r="7" fill="#30312F"/>
<g filter="url(#filter1_d_115_135)">
<circle cx="99" cy="71" r="5.44444" fill="#242523"/>
</g>
<rect x="101.333" y="71.7778" width="2" height="4" rx="1" transform="rotate(-90 101.333 71.7778)" fill="#F2F2F1"/>
<rect x="86.5" y="118.5" width="8" height="29" fill="white" stroke="#30312F" stroke-width="3"/>
<path d="M73.4472 149.106C73.786 148.428 74.4785 148 75.2361 148H104.764C105.521 148 106.214 148.428 106.553 149.106L108.553 153.106C109.218 154.435 108.251 156 106.764 156H73.2361C71.7493 156 70.7823 154.435 71.4472 153.106L73.4472 149.106Z" fill="white" stroke="#30312F" stroke-width="4"/>
<path d="M61.325 92C60.0409 92 58.989 93.0431 59.1068 94.3218C59.3722 97.2033 60.1307 100.035 61.3597 102.715C62.9176 106.112 65.2011 109.199 68.0797 111.799C70.9583 114.399 74.3757 116.461 78.1368 117.869C81.8979 119.276 85.929 120 90 120C94.071 120 98.1021 119.276 101.863 117.869C105.624 116.461 109.042 114.399 111.92 111.799C114.799 109.199 117.082 106.112 118.64 102.715C119.869 100.035 120.628 97.2033 120.893 94.3217C121.011 93.0431 119.959 92 118.675 92C117.391 92 116.363 93.0439 116.224 94.3205C115.972 96.65 115.34 98.9375 114.344 101.108C113.02 103.995 111.079 106.619 108.632 108.829C106.185 111.039 103.281 112.792 100.084 113.988C96.8868 115.184 93.4603 115.8 90 115.8C86.5397 115.8 83.1132 115.184 79.9163 113.988C76.7194 112.792 73.8146 111.039 71.3677 108.829C68.9209 106.619 66.98 103.995 65.6558 101.108C64.6605 98.9375 64.0282 96.65 63.7755 94.3205C63.6371 93.0439 62.6091 92 61.325 92Z" fill="#30312F"/>
<rect x="127" y="94" width="50" height="4" rx="2" transform="rotate(-90 127 94)" fill="#30312F"/>
<rect x="139" y="84" width="30" height="4" rx="2" transform="rotate(-90 139 84)" fill="#30312F"/>
<rect x="151" y="99" width="60" height="4" rx="2" transform="rotate(-90 151 99)" fill="#30312F"/>
<path d="M165 104C163.895 104 163 103.105 163 102V36C163 34.8954 163.895 34 165 34C166.105 34 167 34.8954 167 36V69V102C167 103.105 166.105 104 165 104Z" fill="#30312F"/>
<rect width="50" height="4" rx="2" transform="matrix(0 -1 -1 0 53 94)" fill="#30312F"/>
<rect width="30" height="4" rx="2" transform="matrix(0 -1 -1 0 41 84)" fill="#30312F"/>
<rect width="60" height="4" rx="2" transform="matrix(0 -1 -1 0 29 99)" fill="#30312F"/>
<path d="M15 104C16.1046 104 17 103.105 17 102L17 36C17 34.8954 16.1046 34 15 34C13.8954 34 13 34.8954 13 36L13 69L13 102C13 103.105 13.8954 104 15 104Z" fill="#30312F"/>
<path d="M209.592 100.24C208.984 100.24 208.472 100.032 208.056 99.616C207.64 99.2 207.432 98.688 207.432 98.08V70.576H197.64C197.064 70.576 196.584 70.384 196.2 70C195.816 69.616 195.624 69.136 195.624 68.56C195.624 67.984 195.816 67.504 196.2 67.12C196.584 66.704 197.064 66.496 197.64 66.496H221.544C222.12 66.496 222.6 66.704 222.984 67.12C223.4 67.504 223.608 67.984 223.608 68.56C223.608 69.136 223.4 69.616 222.984 70C222.6 70.384 222.12 70.576 221.544 70.576H211.8V98.08C211.8 98.688 211.576 99.2 211.128 99.616C210.712 100.032 210.2 100.24 209.592 100.24ZM231.066 100C230.458 100 229.946 99.792 229.53 99.376C229.114 98.96 228.906 98.448 228.906 97.84V68.704C228.906 68.096 229.114 67.584 229.53 67.168C229.946 66.72 230.458 66.496 231.066 66.496H250.314C250.89 66.496 251.37 66.704 251.754 67.12C252.17 67.504 252.378 67.984 252.378 68.56C252.378 69.136 252.17 69.616 251.754 70C251.37 70.384 250.89 70.576 250.314 70.576H233.274V81.184H248.586C249.162 81.184 249.642 81.392 250.026 81.808C250.442 82.192 250.65 82.672 250.65 83.248C250.65 83.824 250.442 84.304 250.026 84.688C249.642 85.072 249.162 85.264 248.586 85.264H233.274V95.92H250.314C250.89 95.92 251.37 96.128 251.754 96.544C252.17 96.928 252.378 97.408 252.378 97.984C252.378 98.56 252.17 99.04 251.754 99.424C251.37 99.808 250.89 100 250.314 100H231.066ZM262.539 100C261.707 100 260.987 99.712 260.379 99.136C259.803 98.528 259.515 97.808 259.515 96.976V68.464C259.515 67.856 259.723 67.344 260.139 66.928C260.555 66.48 261.067 66.256 261.675 66.256C262.283 66.256 262.795 66.48 263.211 66.928C263.659 67.344 263.883 67.856 263.883 68.464V95.632H279.579C280.187 95.632 280.699 95.856 281.115 96.304C281.563 96.72 281.787 97.232 281.787 97.84C281.787 98.448 281.563 98.96 281.115 99.376C280.699 99.792 280.187 100 279.579 100H262.539ZM290.196 100C289.364 100 288.644 99.712 288.036 99.136C287.46 98.528 287.172 97.808 287.172 96.976V68.464C287.172 67.856 287.38 67.344 287.796 66.928C288.212 66.48 288.724 66.256 289.332 66.256C289.94 66.256 290.452 66.48 290.868 66.928C291.316 67.344 291.54 67.856 291.54 68.464V95.632H307.236C307.844 95.632 308.356 95.856 308.772 96.304C309.22 96.72 309.444 97.232 309.444 97.84C309.444 98.448 309.22 98.96 308.772 99.376C308.356 99.792 307.844 100 307.236 100H290.196ZM316.988 100C316.38 100 315.868 99.792 315.452 99.376C315.036 98.96 314.828 98.448 314.828 97.84V68.704C314.828 68.096 315.036 67.584 315.452 67.168C315.868 66.72 316.38 66.496 316.988 66.496H336.236C336.812 66.496 337.292 66.704 337.676 67.12C338.092 67.504 338.3 67.984 338.3 68.56C338.3 69.136 338.092 69.616 337.676 70C337.292 70.384 336.812 70.576 336.236 70.576H319.196V81.184H334.508C335.084 81.184 335.564 81.392 335.948 81.808C336.364 82.192 336.572 82.672 336.572 83.248C336.572 83.824 336.364 84.304 335.948 84.688C335.564 85.072 335.084 85.264 334.508 85.264H319.196V95.92H336.236C336.812 95.92 337.292 96.128 337.676 96.544C338.092 96.928 338.3 97.408 338.3 97.984C338.3 98.56 338.092 99.04 337.676 99.424C337.292 99.808 336.812 100 336.236 100H316.988ZM347.597 100.24C346.989 100.24 346.477 100.032 346.061 99.616C345.645 99.2 345.437 98.688 345.437 98.08V68.704C345.437 68.096 345.645 67.584 346.061 67.168C346.477 66.72 346.989 66.496 347.597 66.496H358.781C363.133 66.496 366.397 67.392 368.573 69.184C370.749 70.976 371.837 73.328 371.837 76.24C371.837 78.16 371.293 79.92 370.205 81.52C369.149 83.088 367.597 84.224 365.549 84.928C367.853 85.536 369.421 86.976 370.253 89.248C371.117 91.488 371.549 93.696 371.549 95.872V98.08C371.549 98.688 371.341 99.2 370.925 99.616C370.509 100.032 369.997 100.24 369.389 100.24C368.717 100.24 368.173 100.048 367.757 99.664C367.373 99.248 367.181 98.72 367.181 98.08V96.64C367.181 95.04 367.037 93.568 366.749 92.224C366.461 90.848 365.773 89.632 364.685 88.576C363.597 87.488 361.949 86.944 359.741 86.944H349.805V98.08C349.805 98.688 349.581 99.2 349.133 99.616C348.717 100.032 348.205 100.24 347.597 100.24ZM358.493 82.816C361.245 82.816 363.421 82.272 365.021 81.184C366.653 80.096 367.469 78.56 367.469 76.576C367.469 74.656 366.765 73.184 365.357 72.16C363.981 71.136 361.613 70.624 358.253 70.624H349.805V82.816H358.493Z" fill="#30312F"/>
<path d="M65 88C65 101.807 76.1929 113 90 113C103.807 113 115 101.807 115 88V68H65V88Z" fill="#63989F"/>
<path d="M65 38C65 24.1929 76.1929 13 90 13C103.807 13 115 24.1929 115 38V68H65V38Z" fill="#9F7163"/>
<rect x="67" y="15" width="46" height="96" rx="23" stroke="#30312F" stroke-width="4"/>
<rect x="65" y="67" width="50" height="4" fill="#30312F"/>
<path d="M90.5 104.15C90.5 105.172 91.3303 106.01 92.3469 105.908C94.1428 105.727 95.906 105.285 97.5796 104.592C99.8242 103.662 101.864 102.299 103.581 100.581C105.299 98.8636 106.662 96.8242 107.592 94.5796C108.285 92.906 108.727 91.1428 108.908 89.3469C109.01 88.3303 108.172 87.5 107.15 87.5C106.128 87.5 105.312 88.3314 105.185 89.3452C105.02 90.6548 104.681 91.9392 104.173 93.1637C103.43 94.9593 102.339 96.5909 100.965 97.9652C99.5909 99.3395 97.9593 100.43 96.1637 101.173C94.9392 101.681 93.6548 102.02 92.3452 102.185C91.3314 102.312 90.5 103.128 90.5 104.15Z" fill="#30312F"/>
<circle cx="81" cy="71" r="7" fill="#30312F"/>
<g filter="url(#filter2_d_115_135)">
<circle cx="81" cy="71" r="5.44444" fill="#242523"/>
</g>
<rect x="80.2222" y="73.3333" width="2" height="4" rx="1" fill="#F2F2F1"/>
<circle cx="99" cy="71" r="7" fill="#30312F"/>
<g filter="url(#filter3_d_115_135)">
<circle cx="99" cy="71" r="5.44444" fill="#242523"/>
</g>
<rect x="101.333" y="71.7778" width="2" height="4" rx="1" transform="rotate(-90 101.333 71.7778)" fill="#F2F2F1"/>
<rect x="86.5" y="118.5" width="8" height="29" fill="white" stroke="#30312F" stroke-width="3"/>
<path d="M73.4472 149.106C73.786 148.428 74.4785 148 75.2361 148H104.764C105.521 148 106.214 148.428 106.553 149.106L108.553 153.106C109.218 154.435 108.251 156 106.764 156H73.2361C71.7493 156 70.7823 154.435 71.4472 153.106L73.4472 149.106Z" fill="white" stroke="#30312F" stroke-width="4"/>
<path d="M61.325 92C60.0409 92 58.989 93.0431 59.1068 94.3218C59.3722 97.2033 60.1307 100.035 61.3597 102.715C62.9176 106.112 65.2011 109.199 68.0797 111.799C70.9583 114.399 74.3757 116.461 78.1368 117.869C81.8979 119.276 85.929 120 90 120C94.071 120 98.1021 119.276 101.863 117.869C105.624 116.461 109.042 114.399 111.92 111.799C114.799 109.199 117.082 106.112 118.64 102.715C119.869 100.035 120.628 97.2033 120.893 94.3217C121.011 93.0431 119.959 92 118.675 92C117.391 92 116.363 93.0439 116.224 94.3205C115.972 96.65 115.34 98.9375 114.344 101.108C113.02 103.995 111.079 106.619 108.632 108.829C106.185 111.039 103.281 112.792 100.084 113.988C96.8868 115.184 93.4603 115.8 90 115.8C86.5397 115.8 83.1132 115.184 79.9163 113.988C76.7194 112.792 73.8146 111.039 71.3677 108.829C68.9209 106.619 66.98 103.995 65.6558 101.108C64.6605 98.9375 64.0282 96.65 63.7755 94.3205C63.6371 93.0439 62.6091 92 61.325 92Z" fill="#30312F"/>
<rect x="127" y="94" width="50" height="4" rx="2" transform="rotate(-90 127 94)" fill="#30312F"/>
<rect x="139" y="84" width="30" height="4" rx="2" transform="rotate(-90 139 84)" fill="#30312F"/>
<rect x="151" y="99" width="60" height="4" rx="2" transform="rotate(-90 151 99)" fill="#30312F"/>
<path d="M165 104C163.895 104 163 103.105 163 102V36C163 34.8954 163.895 34 165 34C166.105 34 167 34.8954 167 36V69V102C167 103.105 166.105 104 165 104Z" fill="#30312F"/>
<rect width="50" height="4" rx="2" transform="matrix(0 -1 -1 0 53 94)" fill="#30312F"/>
<rect width="30" height="4" rx="2" transform="matrix(0 -1 -1 0 41 84)" fill="#30312F"/>
<rect width="60" height="4" rx="2" transform="matrix(0 -1 -1 0 29 99)" fill="#30312F"/>
<path d="M15 104C16.1046 104 17 103.105 17 102L17 36C17 34.8954 16.1046 34 15 34C13.8954 34 13 34.8954 13 36L13 69L13 102C13 103.105 13.8954 104 15 104Z" fill="#30312F"/>
<defs>
<filter id="filter0_d_115_135" x="73.5556" y="63.5556" width="14.8889" height="14.8889" filterUnits="userSpaceOnUse" color-interpolation-filters="sRGB">
<feFlood flood-opacity="0" result="BackgroundImageFix"/>
<feColorMatrix in="SourceAlpha" type="matrix" values="0 0 0 0 0 0 0 0 0 0 0 0 0 0 0 0 0 0 127 0" result="hardAlpha"/>
<feOffset/>
<feGaussianBlur stdDeviation="1"/>
<feComposite in2="hardAlpha" operator="out"/>
<feColorMatrix type="matrix" values="0 0 0 0 0 0 0 0 0 0 0 0 0 0 0 0 0 0 0.25 0"/>
<feBlend mode="normal" in2="BackgroundImageFix" result="effect1_dropShadow_115_135"/>
<feBlend mode="normal" in="SourceGraphic" in2="effect1_dropShadow_115_135" result="shape"/>
</filter>
<filter id="filter1_d_115_135" x="91.5556" y="63.5556" width="14.8889" height="14.8889" filterUnits="userSpaceOnUse" color-interpolation-filters="sRGB">
<feFlood flood-opacity="0" result="BackgroundImageFix"/>
<feColorMatrix in="SourceAlpha" type="matrix" values="0 0 0 0 0 0 0 0 0 0 0 0 0 0 0 0 0 0 127 0" result="hardAlpha"/>
<feOffset/>
<feGaussianBlur stdDeviation="1"/>
<feComposite in2="hardAlpha" operator="out"/>
<feColorMatrix type="matrix" values="0 0 0 0 0 0 0 0 0 0 0 0 0 0 0 0 0 0 0.25 0"/>
<feBlend mode="normal" in2="BackgroundImageFix" result="effect1_dropShadow_115_135"/>
<feBlend mode="normal" in="SourceGraphic" in2="effect1_dropShadow_115_135" result="shape"/>
</filter>
<filter id="filter2_d_115_135" x="73.5556" y="63.5556" width="14.8889" height="14.8889" filterUnits="userSpaceOnUse" color-interpolation-filters="sRGB">
<feFlood flood-opacity="0" result="BackgroundImageFix"/>
<feColorMatrix in="SourceAlpha" type="matrix" values="0 0 0 0 0 0 0 0 0 0 0 0 0 0 0 0 0 0 127 0" result="hardAlpha"/>
<feOffset/>
<feGaussianBlur stdDeviation="1"/>
<feComposite in2="hardAlpha" operator="out"/>
<feColorMatrix type="matrix" values="0 0 0 0 0 0 0 0 0 0 0 0 0 0 0 0 0 0 0.25 0"/>
<feBlend mode="normal" in2="BackgroundImageFix" result="effect1_dropShadow_115_135"/>
<feBlend mode="normal" in="SourceGraphic" in2="effect1_dropShadow_115_135" result="shape"/>
</filter>
<filter id="filter3_d_115_135" x="91.5556" y="63.5556" width="14.8889" height="14.8889" filterUnits="userSpaceOnUse" color-interpolation-filters="sRGB">
<feFlood flood-opacity="0" result="BackgroundImageFix"/>
<feColorMatrix in="SourceAlpha" type="matrix" values="0 0 0 0 0 0 0 0 0 0 0 0 0 0 0 0 0 0 127 0" result="hardAlpha"/>
<feOffset/>
<feGaussianBlur stdDeviation="1"/>
<feComposite in2="hardAlpha" operator="out"/>
<feColorMatrix type="matrix" values="0 0 0 0 0 0 0 0 0 0 0 0 0 0 0 0 0 0 0.25 0"/>
<feBlend mode="normal" in2="BackgroundImageFix" result="effect1_dropShadow_115_135"/>
<feBlend mode="normal" in="SourceGraphic" in2="effect1_dropShadow_115_135" result="shape"/>
</filter>
</defs>
</svg>
